<svg width="38" height="46" viewBox="0 0 38 46" fill="none" xmlns="http://www.w3.org/2000/svg">
<path d="M28.616 0.329102C28.9146 3.06863 27.7859 5.65233 26.18 7.629C24.5739 9.60276 21.8215 11.3235 19.2415 11.1203C18.888 8.4365 20.2917 5.56732 21.7787 3.82036C23.4398 1.84369 26.3026 0.423471 28.616 0.329102Z" fill="#2D2D35"/>
<path d="M36.7588 15.7059C36.3395 15.9602 31.7545 18.7418 31.8055 24.3912C31.8684 31.2182 37.7575 33.5503 37.9801 33.6385C37.9831 33.6397 37.985 33.6404 37.9859 33.6408C37.9841 33.6466 37.9812 33.6559 37.9773 33.6687C37.8682 34.0226 36.9395 37.0352 34.7999 40.1444C32.8791 42.9279 30.8885 45.7029 27.7519 45.7634C26.2453 45.7901 25.2378 45.3569 24.1908 44.9067C23.0943 44.4352 21.9545 43.9451 20.1525 43.9451C18.2655 43.9451 17.0729 44.4495 15.9236 44.9356C14.9274 45.357 13.9636 45.7646 12.6082 45.8181C9.57893 45.9334 7.27504 42.8069 5.33965 40.032C1.38762 34.3554 -1.63589 23.9906 2.4235 16.9972C4.43723 13.5221 8.03817 11.3235 11.9496 11.2658C13.6346 11.2332 15.2674 11.8761 16.6966 12.4388C17.7875 12.8684 18.7598 13.2512 19.5461 13.2512C20.2516 13.2512 21.1978 12.8808 22.3014 12.4489C24.039 11.7688 26.1666 10.936 28.3583 11.1563C29.8614 11.2197 34.0745 11.7586 36.7818 15.6918C36.7766 15.695 36.7689 15.6997 36.7588 15.7059Z" fill="#2D2D35"/>
</svg>
