<svg width="54" height="31" viewBox="0 0 54 31" fill="none" xmlns="http://www.w3.org/2000/svg">
<path d="M39.4142 22.8125C38.1991 22.8125 37.1953 21.8239 37.1953 20.5948C37.1953 19.3656 38.1991 18.4037 39.4142 18.4037C40.6292 18.4037 41.633 19.3656 41.633 20.5948C41.633 21.8239 40.6292 22.8125 39.4142 22.8125ZM15.1129 22.8125C13.8979 22.8125 12.8941 21.8239 12.8941 20.5948C12.8941 19.3656 13.8979 18.4037 15.1129 18.4037C16.328 18.4037 17.3053 19.3656 17.3053 20.5948C17.3053 21.8239 16.328 22.8125 15.1129 22.8125ZM40.2066 9.42579L44.6178 1.73043C44.8555 1.27619 44.697 0.715066 44.2744 0.474586C43.8254 0.207385 43.2706 0.367706 43.0857 0.821946L38.5689 8.59747C35.014 6.95214 31.1464 6.11312 27.2371 6.13923C23.1957 6.13923 19.3128 7.02099 15.9582 8.57075L11.4942 0.795225C11.4381 0.687029 11.3607 0.591622 11.2668 0.51491C11.1728 0.438198 11.0643 0.381815 10.9479 0.349253C10.8315 0.31669 10.7097 0.30864 10.5902 0.325603C10.4706 0.342565 10.3557 0.384179 10.2527 0.447866C9.80364 0.688346 9.67157 1.24947 9.9093 1.70371L14.2941 9.39907C6.76599 13.5674 1.58877 21.2895 0.822754 30.4277H53.6515C52.9119 21.3162 47.7611 13.5941 40.2066 9.42579Z" fill="#2D2D35"/>
</svg>
